<mxfile host="app.diagrams.net" modified="2023-10-17T13:10:45.773Z" agent="Mozilla/5.0 (Windows NT 10.0; Win64; x64) AppleWebKit/537.36 (KHTML, like Gecko) Chrome/117.0.0.0 Safari/537.36" etag="2rKVPMpMWb0BSRO0gSOV" version="21.7.4" type="google">
  <diagram name="Página-1" id="iQ3ZUq9S0s3VkcR6XtJS">
    <mxGraphModel grid="1" page="1" gridSize="10" guides="1" tooltips="1" connect="1" arrows="1" fold="1" pageScale="1" pageWidth="827" pageHeight="1169" math="0" shadow="0">
      <root>
        <mxCell id="0" />
        <mxCell id="1" parent="0" />
        <mxCell id="xGsKfPJb2ivM6ZpYNaE7-1" value="Sistema" style="verticalAlign=top;align=left;spacingTop=8;spacingLeft=2;spacingRight=12;shape=cube;size=10;direction=south;fontStyle=4;html=1;whiteSpace=wrap;" vertex="1" parent="1">
          <mxGeometry x="210" y="20" width="520" height="470" as="geometry" />
        </mxCell>
        <mxCell id="xGsKfPJb2ivM6ZpYNaE7-2" value="Paciente" style="shape=umlActor;verticalLabelPosition=bottom;verticalAlign=top;html=1;" vertex="1" parent="1">
          <mxGeometry x="100" y="210" width="50" height="90" as="geometry" />
        </mxCell>
        <mxCell id="xGsKfPJb2ivM6ZpYNaE7-3" value="Registrar medicación" style="ellipse;whiteSpace=wrap;html=1;" vertex="1" parent="1">
          <mxGeometry x="349" y="120" width="130" height="90" as="geometry" />
        </mxCell>
        <mxCell id="xGsKfPJb2ivM6ZpYNaE7-4" value="Registrar medicamentos" style="rounded=0;whiteSpace=wrap;html=1;" vertex="1" parent="1">
          <mxGeometry x="380" y="40" width="180" height="20" as="geometry" />
        </mxCell>
        <mxCell id="xGsKfPJb2ivM6ZpYNaE7-18" value="Guardar medicación" style="ellipse;whiteSpace=wrap;html=1;" vertex="1" parent="1">
          <mxGeometry x="354" y="300" width="120" height="80" as="geometry" />
        </mxCell>
        <mxCell id="xGsKfPJb2ivM6ZpYNaE7-20" value="Almacenar registros" style="ellipse;whiteSpace=wrap;html=1;" vertex="1" parent="1">
          <mxGeometry x="570" y="310" width="120" height="80" as="geometry" />
        </mxCell>
        <mxCell id="eXhtFjhwmxeQVnrSMDdb-1" value="Include" style="endArrow=open;endSize=12;dashed=1;html=1;rounded=0;exitX=0.5;exitY=1;exitDx=0;exitDy=0;" edge="1" parent="1" source="xGsKfPJb2ivM6ZpYNaE7-3" target="xGsKfPJb2ivM6ZpYNaE7-18">
          <mxGeometry width="160" relative="1" as="geometry">
            <mxPoint x="430" y="240" as="sourcePoint" />
            <mxPoint x="503" y="366" as="targetPoint" />
          </mxGeometry>
        </mxCell>
        <mxCell id="eXhtFjhwmxeQVnrSMDdb-2" value="Extends" style="endArrow=block;endSize=16;endFill=0;html=1;rounded=0;entryX=1;entryY=0.5;entryDx=0;entryDy=0;exitX=0.008;exitY=0.4;exitDx=0;exitDy=0;exitPerimeter=0;" edge="1" parent="1" source="xGsKfPJb2ivM6ZpYNaE7-20" target="xGsKfPJb2ivM6ZpYNaE7-18">
          <mxGeometry x="-0.1961" y="-1" width="160" relative="1" as="geometry">
            <mxPoint x="526" y="370" as="sourcePoint" />
            <mxPoint x="420" y="370" as="targetPoint" />
            <mxPoint as="offset" />
          </mxGeometry>
        </mxCell>
        <mxCell id="eXhtFjhwmxeQVnrSMDdb-3" value="" style="endArrow=none;html=1;rounded=0;entryX=0;entryY=0.5;entryDx=0;entryDy=0;exitX=0.5;exitY=0.5;exitDx=0;exitDy=0;exitPerimeter=0;" edge="1" parent="1" source="xGsKfPJb2ivM6ZpYNaE7-2" target="xGsKfPJb2ivM6ZpYNaE7-3">
          <mxGeometry width="50" height="50" relative="1" as="geometry">
            <mxPoint x="260" y="220" as="sourcePoint" />
            <mxPoint x="310" y="170" as="targetPoint" />
          </mxGeometry>
        </mxCell>
      </root>
    </mxGraphModel>
  </diagram>
</mxfile>
